<svg width="17" height="15" viewBox="0 0 17 15" fill="none" xmlns="http://www.w3.org/2000/svg">
<g clip-path="url(#clip0_1_86)">
<g clip-path="url(#clip1_1_86)">
<g clip-path="url(#clip2_1_86)">
<path d="M11.821 13.2466L11.1545 9.43324L13.9868 6.74302L10.0808 6.18143L8.33149 2.72129L6.58213 6.18143L2.67616 6.74302L5.50845 9.43324L4.83278 13.2466L8.33149 11.4441L11.821 13.2466ZM15.514 5.78288C15.8596 5.83723 16.0324 5.97612 16.0324 6.19955C16.0324 6.3324 15.9522 6.47732 15.7917 6.63433L12.4318 9.84084L13.2278 14.3698C13.234 14.4121 13.2371 14.4725 13.2371 14.551C13.2371 14.8529 13.1106 15.0039 12.8576 15.0039C12.7404 15.0039 12.617 14.9676 12.4874 14.8952L8.33149 12.7575L4.17561 14.8952C4.03986 14.9676 3.91645 15.0039 3.80538 15.0039C3.67579 15.0039 3.57861 14.9601 3.51382 14.8725C3.44902 14.785 3.41663 14.6778 3.41663 14.551C3.41663 14.5147 3.4228 14.4544 3.43514 14.3698L4.23115 9.84084L0.862012 6.63433C0.707747 6.47129 0.630615 6.32636 0.630615 6.19955C0.630615 5.97612 0.803391 5.83723 1.14894 5.78288L5.79539 5.12165L7.87795 1.00028C7.9952 0.752698 8.14637 0.628906 8.33149 0.628906C8.51661 0.628906 8.66779 0.752698 8.78503 1.00028L10.8676 5.12165L15.514 5.78288Z" fill="white"/>
</g>
</g>
</g>
<defs>
<clipPath id="clip0_1_86">
<rect width="15.4018" height="14.375" fill="white" transform="translate(0.630859 0.625)"/>
</clipPath>
<clipPath id="clip1_1_86">
<rect width="15.4018" height="14.375" fill="white" transform="translate(0.630859 0.625)"/>
</clipPath>
<clipPath id="clip2_1_86">
<rect width="15.4018" height="14.375" fill="white" transform="translate(0.630859 0.625)"/>
</clipPath>
</defs>
</svg>
