<svg width="20" height="20" viewBox="0 0 20 20" fill="none" xmlns="http://www.w3.org/2000/svg">
<g clip-path="url(#clip0_1_459)">
<g clip-path="url(#clip1_1_459)">
<path d="M16.5098 16.0154C15.8375 16.6454 14.9335 17.0312 13.9395 17.0312C11.863 17.0312 10.1797 15.3479 10.1797 13.2715C10.1797 11.195 11.863 9.51172 13.9395 9.51172C16.0159 9.51172 17.6992 11.195 17.6992 13.2715C17.6992 13.7337 17.6158 14.1763 17.4633 14.5853L19.4128 15.9104C19.8053 16.1771 19.9072 16.7116 19.6404 17.1042C19.3736 17.4967 18.8391 17.5986 18.4466 17.3318L16.5098 16.0154ZM2.64062 2.87109C2.16602 2.87109 1.78125 2.48633 1.78125 2.01172C1.78125 1.53711 2.16602 1.15234 2.64062 1.15234H18.9297C19.4043 1.15234 19.7891 1.53711 19.7891 2.01172C19.7891 2.48633 19.4043 2.87109 18.9297 2.87109H2.64062ZM2.64062 12.6074C2.16602 12.6074 1.78125 12.2227 1.78125 11.748C1.78125 11.2734 2.16602 10.8887 2.64062 10.8887H7.54297C8.01758 10.8887 8.40234 11.2734 8.40234 11.748C8.40234 12.2227 8.01758 12.6074 7.54297 12.6074H2.64062ZM2.64062 7.74414C2.16602 7.74414 1.78125 7.35938 1.78125 6.88477C1.78125 6.41016 2.16602 6.02539 2.64062 6.02539H18.9297C19.4043 6.02539 19.7891 6.41016 19.7891 6.88477C19.7891 7.35938 19.4043 7.74414 18.9297 7.74414H2.64062ZM2.64062 17.4902C2.16602 17.4902 1.78125 17.1055 1.78125 16.6309C1.78125 16.1562 2.16602 15.7715 2.64062 15.7715H7.54297C8.01758 15.7715 8.40234 16.1562 8.40234 16.6309C8.40234 17.1055 8.01758 17.4902 7.54297 17.4902H2.64062ZM13.9395 15.3125C15.0667 15.3125 15.9805 14.3987 15.9805 13.2715C15.9805 12.1443 15.0667 11.2305 13.9395 11.2305C12.8122 11.2305 11.8984 12.1443 11.8984 13.2715C11.8984 14.3987 12.8122 15.3125 13.9395 15.3125Z" fill="#888888"/>
</g>
</g>
<defs>
<clipPath id="clip0_1_459">
<rect width="20" height="20" fill="white"/>
</clipPath>
<clipPath id="clip1_1_459">
<rect width="20" height="20" fill="white"/>
</clipPath>
</defs>
</svg>
