<svg width="18" height="19" viewBox="0 0 18 19" fill="none" xmlns="http://www.w3.org/2000/svg">
<path d="M16.7077 0.583159C16.6138 0.476866 16.5009 0.392238 16.3758 0.334411C16.2506 0.276584 16.1159 0.246765 15.9797 0.246765C15.8435 0.246765 15.7088 0.276584 15.5837 0.334411C15.4585 0.392238 15.3456 0.476866 15.2517 0.583159L8.69988 7.643L2.14804 0.583159C1.9543 0.378576 1.69346 0.264643 1.42221 0.26612C1.15095 0.267596 0.891196 0.384361 0.699387 0.591042C0.507578 0.797723 0.399215 1.07762 0.397845 1.36991C0.396475 1.66219 0.502209 1.94325 0.692071 2.15201L7.24392 9.21186L0.692071 16.2717C0.593427 16.3728 0.514888 16.4945 0.461222 16.6294C0.407556 16.7642 0.379883 16.9094 0.379883 17.0561C0.379883 17.2028 0.407556 17.348 0.461222 17.4829C0.514888 17.6177 0.593427 17.7394 0.692071 17.8406C0.783564 17.9501 0.896053 18.0369 1.02175 18.0949C1.14745 18.153 1.28335 18.1809 1.42005 18.1767C1.55675 18.1809 1.69266 18.153 1.81836 18.0949C1.94405 18.0369 2.05654 17.9501 2.14804 17.8406L8.69988 10.7807L15.2517 17.8406C15.3456 17.9468 15.4585 18.0315 15.5837 18.0893C15.7088 18.1471 15.8435 18.1769 15.9797 18.1769C16.1159 18.1769 16.2506 18.1471 16.3758 18.0893C16.5009 18.0315 16.6138 17.9468 16.7077 17.8406C16.8063 17.7394 16.8849 17.6177 16.9385 17.4829C16.9922 17.348 17.0199 17.2028 17.0199 17.0561C17.0199 16.9094 16.9922 16.7642 16.9385 16.6294C16.8849 16.4945 16.8063 16.3728 16.7077 16.2717L10.1558 9.21186L16.7077 2.15201C16.8063 2.05087 16.8849 1.92919 16.9385 1.79434C16.9922 1.6595 17.0199 1.51431 17.0199 1.36759C17.0199 1.22086 16.9922 1.07567 16.9385 0.940828C16.8849 0.805983 16.8063 0.684298 16.7077 0.583159Z" fill="white"/>
</svg>
